<svg width="15" height="18" viewBox="0 0 15 18" fill="none" xmlns="http://www.w3.org/2000/svg">
<path d="M4.384 17.714H4.634V17.464V8.48452C4.70309 8.59913 4.7804 8.72733 4.86593 8.86913C5.17044 9.37398 5.41335 9.75884 5.5936 10.0211C5.59373 10.0213 5.59386 10.0214 5.59399 10.0216L10.7533 17.6046L10.8277 17.714H10.96H14.104H14.354V17.464V1V0.75H14.104H10.72H10.47V1V9.98923C10.4066 9.8818 10.3383 9.76409 10.2651 9.63597L10.2653 9.63582L10.2587 9.62549L9.53875 8.4975L9.53884 8.49744L9.53482 8.49153L4.3508 0.859529L4.2764 0.75H4.144H1H0.75V1V17.464V17.714H1H4.384Z" fill="black" stroke="white" stroke-width="0.5"/>
</svg>
